<svg width="58" height="41" viewBox="0 0 58 41" fill="none" xmlns="http://www.w3.org/2000/svg">
<path fill-rule="evenodd" clip-rule="evenodd" d="M28.5834 30.6403C27.9939 29.8689 27.0742 29.3962 26.1034 29.395H20.9176C19.1958 29.395 17.8 30.7908 17.8 32.5126V33.3986C17.8 34.9164 16.4126 36.0046 15 35.4493C10.2204 33.5736 1 28.2393 1 15.0107C1 7.06786 7.3112 0.625 15.098 0.625H26.102C30.8685 0.625 35.0829 3.03911 37.6345 6.73406C39.5599 9.52215 42.3347 12.0536 45.723 12.0536C48.714 12.054 51.5823 13.2666 53.6971 15.4249C55.8119 17.5831 57 20.5101 57 23.5621C57 33.9607 48.8408 38.2621 44.4 39.8321C42.9696 40.3384 41.6 39.2299 41.6 37.7125V37.5987C41.6 36.2018 40.4675 35.0693 39.0706 35.0693H37.4784C35.4959 35.0706 33.5481 34.5382 31.8316 33.5259C30.5729 32.7835 29.4713 31.8024 28.5834 30.6403ZM17.2887 26.5379C16.0247 26.5379 15 27.5626 15 28.8266C15 30.4856 13.2917 31.5741 11.9075 30.6596C11.614 30.4658 11.3251 30.2646 11.0408 30.0564C7.4148 27.3807 3.8 22.845 3.8 15.0093C3.80037 11.952 4.99086 9.02 7.1096 6.85828C9.22835 4.69656 12.1018 3.48214 15.098 3.48214H26.102C28.9838 3.48219 31.7566 4.60589 33.8531 6.62335C35.9497 8.6408 37.2115 11.3995 37.3804 14.335C37.3748 14.4617 37.3669 14.5874 37.3566 14.7121C37.2105 16.6231 36.6909 18.4848 35.8284 20.1876C34.9659 21.8903 33.778 23.3996 32.3348 24.6264C30.4877 25.8764 28.3198 26.5414 26.1034 26.5379H17.2887ZM34.005 26.9236C32.514 28.1722 32.0306 30.4803 33.7731 31.3438C33.7892 31.3518 33.8054 31.3597 33.8215 31.3676C34.9633 31.9244 36.2129 32.2129 37.4784 32.2121H42.5562C43.5745 32.2121 44.4 33.0376 44.4 34.0559C44.4 35.3619 45.7204 36.2451 46.8579 35.6035C47.1787 35.4226 47.4949 35.233 47.8062 35.035C51.12 32.8993 54.2 29.4307 54.2 23.5621C54.2 21.2679 53.3069 19.0676 51.7172 17.4452C50.1275 15.8227 47.9714 14.9111 45.723 14.9107H40.3C40.2448 14.9107 40.2 14.9555 40.2 15.0107C40.2 19.9664 37.743 24.3364 34.005 26.9236Z" fill="white" stroke="white" stroke-width="0.3"/>
</svg>
