<svg width="50" height="48" viewBox="0 0 50 48" fill="none" xmlns="http://www.w3.org/2000/svg">
<path d="M8.75 11.2491C8.74793 11.7778 8.93704 12.3581 9.41303 12.7388L10.9259 13.9488C13.3276 15.8696 16.8771 15.192 18.4023 12.5215L20.3782 9.06158C20.7943 8.33315 20.9417 7.53521 20.9919 6.76145C21.0254 6.2456 21.0162 5.70181 21.0075 5.18905C21.0034 4.95111 20.9995 4.71985 21 4.50117V4.5L40.75 11.25L41.25 11.2503C41.25 11.25 41.25 11.2497 41.25 11.2494C41.2505 10.5336 41.4431 9.83098 41.8077 9.21494C42.1725 8.59866 42.696 8.09161 43.3236 7.74672C43.9513 7.40184 44.66 7.23177 45.3757 7.25428C46.0915 7.27679 46.7881 7.49105 47.3928 7.87469C47.9975 8.25833 48.4882 8.79727 48.8135 9.43526C49.1388 10.0732 49.2869 10.7869 49.2422 11.5016C49.1976 12.2163 48.9619 12.906 48.5597 13.4985C48.4394 13.6759 48.3095 13.8602 48.176 14.0496C47.8715 14.4816 47.5486 14.9399 47.2782 15.4015C46.8808 16.08 46.5526 16.8333 46.4881 17.6801L45.5967 29.3741C45.1397 35.3689 40.1422 40 34.1299 40H15.8701C9.85785 40 4.86032 35.3689 4.40334 29.3741L3.51192 17.6801C3.44737 16.8333 3.11921 16.08 2.72181 15.4015C2.45144 14.9399 2.12847 14.4816 1.82397 14.0496C1.69053 13.8602 1.56063 13.6759 1.44026 13.4985C1.0381 12.906 0.802408 12.2163 0.757777 11.5016C0.713146 10.7869 0.861217 10.0732 1.18653 9.43526C1.51184 8.79727 2.00247 8.25833 2.60717 7.87469C3.21188 7.49105 3.90849 7.27679 4.62427 7.25428C5.34005 7.23177 6.04875 7.40184 6.67637 7.74672C7.30398 8.09161 7.8275 8.59866 8.19226 9.21494C8.55681 9.83088 8.74942 10.5333 8.75 11.2491ZM8.75 11.2491C8.75 11.2486 8.75 11.2482 8.75001 11.2477L9.25 11.25L8.75 11.2503C8.75 11.2499 8.75 11.2495 8.75 11.2491ZM5.25 45C5.25 44.0335 6.0335 43.25 7 43.25H43C43.9665 43.25 44.75 44.0335 44.75 45C44.75 45.9665 43.9665 46.75 43 46.75H7C6.0335 46.75 5.25 45.9665 5.25 45ZM8.10569 30.4433C8.39068 33.8667 11.2523 36.5 14.6875 36.5H35.3086C38.746 36.5 41.6094 33.865 41.8946 30.4395L42.4184 24.1459C42.7014 20.7464 38.7818 18.6566 36.1169 20.786C34.7312 21.8932 32.6843 21.5014 31.8055 19.9607L30.4322 17.553C28.0318 13.3444 21.9652 13.3423 19.5619 17.5492L18.1804 19.9674C17.3022 21.5046 15.2587 21.8944 13.8763 20.7885C11.2152 18.6596 7.29845 20.7465 7.58117 24.1426L8.10569 30.4433Z" fill="white" stroke="black"/>
</svg>
