<svg width="32" height="32" viewBox="0 0 32 32" fill="none" xmlns="http://www.w3.org/2000/svg">
<path d="M29.0733 13.3887H27.9993V13.3334H15.9993V18.6667H23.5347C22.4353 21.7714 19.4813 24.0001 15.9993 24.0001C11.5813 24.0001 7.99935 20.4181 7.99935 16.0001C7.99935 11.5821 11.5813 8.00008 15.9993 8.00008C18.0387 8.00008 19.894 8.76941 21.3067 10.0261L25.078 6.25475C22.6967 4.03541 19.5113 2.66675 15.9993 2.66675C8.63602 2.66675 2.66602 8.63675 2.66602 16.0001C2.66602 23.3634 8.63602 29.3334 15.9993 29.3334C23.3627 29.3334 29.3327 23.3634 29.3327 16.0001C29.3327 15.1061 29.2407 14.2334 29.0733 13.3887Z" fill="#FFC107"/>
<path d="M4.20312 9.79408L8.58379 13.0067C9.76912 10.0721 12.6398 8.00008 15.9991 8.00008C18.0385 8.00008 19.8938 8.76941 21.3065 10.0261L25.0778 6.25475C22.6965 4.03541 19.5111 2.66675 15.9991 2.66675C10.8778 2.66675 6.43646 5.55808 4.20312 9.79408Z" fill="#FF3D00"/>
<path d="M16.0009 29.3333C19.4449 29.3333 22.5742 28.0153 24.9402 25.872L20.8135 22.38C19.4299 23.4322 17.7392 24.0013 16.0009 24C12.5329 24 9.58819 21.7886 8.47886 18.7026L4.13086 22.0526C6.33753 26.3706 10.8189 29.3333 16.0009 29.3333Z" fill="#4CAF50"/>
<path d="M29.074 13.3886H28V13.3333H16V18.6666H23.5353C23.0095 20.1442 22.0622 21.4354 20.8107 22.3806L20.8127 22.3793L24.9393 25.8713C24.6473 26.1366 29.3333 22.6666 29.3333 15.9999C29.3333 15.1059 29.2413 14.2333 29.074 13.3886Z" fill="#1976D2"/>
</svg>
