<svg width="76" height="76" viewBox="0 0 76 76" fill="none" xmlns="http://www.w3.org/2000/svg">
<path d="M63.2 36.2H65C68.366 36.2 70.0472 36.2 71.3 36.9236C72.1208 37.3975 72.8025 38.0792 73.2764 38.9C74 40.1528 74 41.834 74 45.2C74 48.566 74 50.2472 73.2764 51.5C72.8025 52.3208 72.1208 53.0025 71.3 53.4764C70.0472 54.2 68.366 54.2 65 54.2H63.2M12.8 36.2H11C7.634 36.2 5.9528 36.2 4.7 36.9236C3.87916 37.3975 3.19753 38.0792 2.7236 38.9C2 40.1528 2 41.834 2 45.2C2 48.566 2 50.2472 2.7236 51.5C3.19753 52.3208 3.87916 53.0025 4.7 53.4764C5.9528 54.2 7.634 54.2 11 54.2H12.8M38 12.8C39.4322 12.8 40.8057 12.2311 41.8184 11.2184C42.8311 10.2057 43.4 8.83217 43.4 7.4C43.4 5.96783 42.8311 4.59432 41.8184 3.58162C40.8057 2.56893 39.4322 2 38 2C36.5678 2 35.1943 2.56893 34.1816 3.58162C33.1689 4.59432 32.6 5.96783 32.6 7.4C32.6 8.83217 33.1689 10.2057 34.1816 11.2184C35.1943 12.2311 36.5678 12.8 38 12.8ZM38 12.8V23.6M27.2 38V41.6M48.8 38V41.6M34.4 23.6H41.6C51.7808 23.6 56.8748 23.6 60.0356 26.7644C63.2 29.9252 63.2 35.0192 63.2 45.2C63.2 55.3808 63.2 60.4748 60.0356 63.6356C56.8748 66.8 51.7808 66.8 41.6 66.8H38C38 66.8 36.2 74 23.6 74C23.6 74 27.2 70.3676 27.2 66.7388C21.6092 66.5696 18.272 65.9468 15.9644 63.6356C12.8 60.4748 12.8 55.3808 12.8 45.2C12.8 35.0192 12.8 29.9252 15.9644 26.7644C19.1252 23.6 24.2192 23.6 34.4 23.6Z" stroke="white" stroke-width="3" stroke-linecap="round" stroke-linejoin="round"/>
<path d="M30.8008 54.2C30.8008 54.2 33.202 56 38.0008 56C42.7996 56 45.2008 54.2 45.2008 54.2" stroke="white" stroke-width="3" stroke-linecap="round" stroke-linejoin="round"/>
</svg>
