<svg width="48" height="39" viewBox="0 0 48 39" fill="none" xmlns="http://www.w3.org/2000/svg">
<path d="M1.5 3.875C1.5 3.27826 1.73705 2.70597 2.15901 2.28401C2.58097 1.86205 3.15326 1.625 3.75 1.625H44.25C44.8467 1.625 45.419 1.86205 45.841 2.28401C46.2629 2.70597 46.5 3.27826 46.5 3.875V35.375C46.5 35.9717 46.2629 36.544 45.841 36.966C45.419 37.3879 44.8467 37.625 44.25 37.625H3.75C3.15326 37.625 2.58097 37.3879 2.15901 36.966C1.73705 36.544 1.5 35.9717 1.5 35.375V3.875Z" stroke="white" stroke-width="2" stroke-linejoin="round"/>
<path d="M37.5 1.625V37.625M10.5 1.625V37.625M39.75 12.875H46.5M39.75 26.375H46.5M1.5 12.875H8.25M1.5 10.625V15.125M7.125 1.625H13.875M7.125 37.625H13.875M34.125 1.625H40.875M34.125 37.625H40.875M1.5 26.375H8.25M1.5 24.125V28.625M46.5 24.125V28.625M46.5 10.625V15.125" stroke="white" stroke-width="2" stroke-linecap="round" stroke-linejoin="round"/>
<path d="M20.625 19.625C20.625 17.1763 23.3185 15.6834 25.395 16.9812V16.9812C27.3487 18.2023 27.3487 21.0477 25.395 22.2688V22.2688C23.3185 23.5666 20.625 22.0737 20.625 19.625V19.625Z" stroke="white" stroke-width="2" stroke-linejoin="round"/>
</svg>
